<svg id="Layer_1" data-name="Layer 1" xmlns="http://www.w3.org/2000/svg" viewBox="0 0 272.79 437.8">
  <path d="M100.45,8.5h43.77v100h50.22v9.11a90.75,90.75,0,0,1-.71,17.15,42.06,42.06,0,0,1-30.86,33.56,55,55,0,0,1-15.42,1.1h-3.23V385.7q-1.08,27.36-12.92,41.59A47.37,47.37,0,0,1,98.66,443,690.26,690.26,0,0,1,7.53,444.8V378.41H34.8c9.33-.37,15.78-2.92,19.73-8,3.23-4,4.3-8.75,3.95-19V169.74H53.81A57,57,0,0,1,42.69,169,41.17,41.17,0,0,1,9.33,141.29c-1.8-5.84-2.15-10.95-2.15-23V108.09H58.12V49C58.83,27.1,78.93,7.41,100.45,8.5Z" transform="translate(-7.18 -8.46)" fill="#fff"/>
  <path d="M143.5,9.12h42.69C207.72,7.66,228.52,27.36,229.24,50v59.09h50.59v9.49a92.07,92.07,0,0,1-.72,17.15,41.47,41.47,0,0,1-29.42,33.19,48.37,48.37,0,0,1-16.14,1.46h-4V354.59c-.36,8.39,1.08,14.22,4.66,17.87S244,379,252.92,379h26.91v66.39A643.07,643.07,0,0,1,188,443.6a44.66,44.66,0,0,1-34.8-20.43c-7.54-12-10.05-25.54-9.69-52.53V168.54A42.06,42.06,0,0,0,174.35,135a91.67,91.67,0,0,0,.36-17.15v-9.12H143.5Z" transform="translate(-7.18 -8.46)" fill="#00b3cd"/>
</svg>
